<svg width="218" height="46" viewBox="0 0 218 46" fill="none" xmlns="http://www.w3.org/2000/svg">
<path fill-rule="evenodd" clip-rule="evenodd" d="M35.0367 19.8383L26.3583 4.6972L17.6798 19.8383H35.0367ZM9.00055 35.063L8.99973 35.0644L0.222687 19.9201H17.6788L17.6792 19.9201L17.679 19.9205L26.3583 35.063H9.00055ZM35.0373 19.9201L35.0375 19.9205L26.3583 35.063H43.716L43.7168 35.0644L52.4938 19.9201H35.0377L35.0373 19.9201Z" fill="#73DB0A"/>
<path d="M78.1032 35.0644H59.7282C60.0563 33.6269 60.2126 31.83 60.2126 29.6894V18.0331C60.2126 15.8925 60.0563 14.0956 59.7282 12.6581H77.2751L77.9782 17.5331C77.3532 17.1738 76.0095 16.9863 73.947 16.9863H64.6032V21.9706H72.6345C73.9782 21.9706 75.072 21.9238 75.9313 21.8144V26.1425C75.1032 26.0019 73.9938 25.9394 72.6345 25.9394H64.6032V30.7519H73.8845C76.3376 30.7519 77.9782 30.5331 78.8063 30.08L78.1032 35.0644ZM87.7595 35.0644H82.5095C82.8063 33.7206 82.9626 32.2206 82.9626 30.58V23.9238C82.9626 22.0331 82.8063 20.4081 82.5095 19.0644H87.822C87.4626 19.83 87.2751 20.8769 87.2751 22.205V23.1269H87.6032C88.7126 20.1425 90.8688 18.6425 94.0407 18.6425C97.3688 18.6425 99.4313 20.1425 100.244 23.1269H100.525C101.588 20.2675 104.009 18.6425 107.306 18.6425C111.681 18.6425 113.9 21.2519 113.9 25.7519V30.0019C113.9 32.0331 114.056 33.7206 114.353 35.0644H109.103C109.431 33.6269 109.588 32.0644 109.588 30.3925V26.7831C109.588 23.8613 108.228 22.1425 105.494 22.1425C104.119 22.1425 102.963 22.6425 102.041 23.6425C101.103 24.6581 100.619 25.7988 100.588 27.0644V30.2363C100.588 31.9394 100.744 33.5488 101.041 35.0644H95.947C96.1657 33.9706 96.2751 32.4081 96.2751 30.3925V26.7831C96.2751 23.8613 94.9157 22.1425 92.1813 22.1425C89.2438 22.1113 87.197 24.7363 87.2751 27.2206V30.4238C87.2751 32.6269 87.4313 34.1738 87.7595 35.0644ZM125.291 35.4863C122.931 35.4863 121.072 34.6894 119.697 33.1113C118.306 31.5331 117.619 29.5175 117.619 27.0644C117.541 22.3456 120.509 18.5956 125.228 18.6425C126.869 18.6425 128.291 19.0488 129.494 19.8613C130.681 20.6738 131.525 21.7519 132.009 23.0956H132.338V18.0331C132.338 15.955 132.181 14.1738 131.884 12.6581H137.103C136.806 14.1738 136.65 15.955 136.65 18.0331V29.6894C136.65 31.7675 136.806 33.5488 137.103 35.0644H131.884C132.181 34.0644 132.338 33.0331 132.338 31.9863V31.0331H131.978C131.463 32.3144 130.619 33.3769 129.478 34.2206C128.322 35.0644 126.931 35.4863 125.291 35.4863ZM127.088 32.1581C128.541 32.1581 129.775 31.6269 130.775 30.58C131.775 29.5331 132.275 28.3613 132.275 27.0644C132.275 25.6113 131.791 24.4081 130.806 23.4238C129.822 22.455 128.588 21.9706 127.088 21.9706C125.509 21.9706 124.213 22.4394 123.197 23.3925C122.181 24.3456 121.681 25.58 121.681 27.0644C121.681 28.5488 122.181 29.7675 123.197 30.7206C124.213 31.6738 125.509 32.1581 127.088 32.1581ZM150.791 35.4863C147.744 35.4863 145.291 34.705 143.431 33.1425C141.556 31.5956 140.619 29.5644 140.619 27.0644C140.619 23.8925 142.213 21.2363 145.15 19.7519C146.603 19.0175 148.291 18.6425 150.181 18.6425C153.009 18.6425 155.306 19.2831 156.697 20.33C158.088 21.3925 158.822 22.7675 158.822 24.3144C158.822 27.455 156.478 28.8613 151.666 28.8613C148.9 28.8613 146.572 28.2519 144.681 27.0331L144.494 27.1581C144.556 28.705 145.291 29.9706 146.697 30.9863C148.103 32.0019 149.791 32.5019 151.759 32.5019C153.119 32.5019 154.4 32.3144 155.619 31.955C156.838 31.5956 157.744 31.1269 158.353 30.5175L158.416 33.9394C157.65 34.3925 156.556 34.7519 155.103 35.0488C153.65 35.3456 152.213 35.4863 150.791 35.4863ZM150.181 26.58C151.353 26.58 152.369 26.4238 153.291 26.0956C154.213 25.7675 154.791 25.1113 154.791 24.2519C154.791 23.4863 154.338 22.83 153.431 22.2988C152.509 21.7675 151.353 21.5019 149.963 21.5019C148.65 21.5019 147.478 21.83 146.463 22.5019C145.431 23.1738 144.822 24.0956 144.619 25.2675C146.103 26.1425 147.963 26.58 150.181 26.58ZM167.603 35.0644H162.353C162.65 33.7206 162.806 32.2206 162.806 30.58V23.9238C162.806 22.0331 162.65 20.4081 162.353 19.0644H167.666C167.306 19.83 167.119 20.8769 167.119 22.205V23.1269H167.447C168.525 20.2519 170.791 18.6425 174.041 18.6425C176.275 18.6425 178.025 19.2519 179.259 20.4863C180.494 21.7206 181.103 23.4863 181.103 25.7519V30.0019C181.103 32.0331 181.259 33.7206 181.556 35.0644H176.306C176.634 33.6269 176.791 32.0644 176.791 30.3925V26.7831C176.791 23.7988 175.103 22.1425 172.275 22.1425C170.822 22.1425 169.588 22.6581 168.603 23.6894C167.619 24.7363 167.119 25.9081 167.119 27.2206V30.4238C167.119 32.6269 167.275 34.1738 167.603 35.0644ZM188.666 35.0644H183.291C184.103 33.5488 184.947 31.7675 185.822 29.6894L190.759 18.0331C191.322 16.6738 191.713 14.8769 191.931 12.6581H199.494C199.759 15.1113 200.119 16.8925 200.603 18.0331L205.572 29.6894C206.572 32.0175 207.4 33.8144 208.072 35.0644H202.728C202.65 34.33 202.228 33.08 201.478 31.3144L200.9 29.9706H190.494L189.916 31.3144C189.134 33.0488 188.713 34.2988 188.666 35.0644ZM194.4 20.2831L191.744 26.3925H199.65L196.963 20.2519C196.681 19.5019 196.306 18.3456 195.838 16.7675H195.556C195.041 18.4394 194.666 19.6113 194.4 20.2831ZM215.228 35.0644H209.916C210.213 33.7206 210.369 31.9238 210.369 29.6894V18.0331C210.369 15.7988 210.213 14.0019 209.916 12.6581H215.228C214.931 13.955 214.791 15.7363 214.791 18.0331V29.6894C214.791 31.9863 214.931 33.7675 215.228 35.0644Z" fill="#720BDA"/>
</svg>
